<?xml version="1.0" encoding="UTF-8"?>
<svg id="Logo" xmlns="http://www.w3.org/2000/svg" viewBox="0 0 400 250">
  <g>
    <path id="corsica" d="M97.9167,196.9882c-.0956-.032-.2725-.3646-.3931-.7392-.292-.907-.502-1.1431-1.0167-1.1431-.5119,0-1.2285-.3011-2.101-.8829-.6481-.4321-1.4575-.4318-1.9947.0009-.4701.3786-.7878.0043-.7878-.9281,0-.7185.0922-.9843.462-1.3317.2541-.2387.462-.6363.462-.8835,0-.2597.1958-.6034.4638-.8142.5787-.4552.4433-.7048-.3823-.7048-.5127,0-.6359-.0716-.6359-.3696,0-.4311-.2336-.479-.5394-.1105-.1183.1425-.4293.3129-.6912.3786-.6136.154-1.1053-.2797-1.3885-1.2251-.1523-.5084-.2972-.6887-.5066-.6306-.1613.0448-.5749.1384-.919.2079-.6027.1217-.6213.1086-.5047-.3558.0877-.3492.0491-.4822-.1399-.4822-.1435,0-.3088.1247-.3673.2772-.1314.3425-.6724.3684-.6724.0322,0-.3272-.7831-1.0487-1.1383-1.0487-.1556,0-.434-.167-.6187-.3711-.3055-.3375-.3646-.3451-.6533-.0838-.2884.261-.3855.2518-1.0596-.0995-.4082-.2127-.7839-.5467-.835-.742-.0834-.3188-.2504-.3511-1.6278-.3148l-1.5349.0404-.1273-.6178c-.07-.3398-.2067-.6971-.3037-.7941-.173-.173-1.2592-.2415-1.9887-.1254-.3131.0498-.3696-.0448-.3696-.6187,0-.3726-.0543-.7319-.1206-.7983-.0664-.0664-.6244-.0216-1.2401.0995-1.3566.2669-1.7644.1578-1.5877-.4247.0695-.2292.2832-.5884.4748-.7983.1916-.2098.3462-.4593.3436-.5544-.0093-.3363-1.3937-.8265-1.9947-.7063-.508.1016-.6195.0462-.9035-.4486-.2547-.4437-.5027-.597-1.1593-.7165-.6808-.1239-.8467-.232-.8967-.5848-.0395-.2784.0759-.529.3234-.7024.5594-.3918.4802-.6976-.4006-1.5451l-.7855-.7558.4422-.3344c.3751-.2836.4422-.4935.4422-1.3818,0-.5761.0713-1.0914.1584-1.1453.0871-.0539.1584-.292.1584-.5293s.1255-.4795.2788-.5383c.1533-.0588.3746-.3172.4917-.5742.2595-.5696.8928-.6348.8928-.0918,0,.6467.506.6189,1.3134-.0722.5286-.4524,1.0912-.7259,1.8062-.878,1.1477-.2441,1.4227-.4824,1.6864-1.4618.1988-.7381.8482-1.3005,1.9035-1.6481.4934-.1626.6843-.3229.6399-.5374-.0501-.2423-.2501-.2958-.9641-.2579-.6453.0342-1.0009-.0428-1.2537-.2716-.2395-.2168-.8331-.3607-1.8474-.4478-1.3901-.1195-1.5264-.1692-1.9515-.7124-.2514-.3212-.651-.6577-.888-.7479-.6094-.2317-1.5414.1351-1.7522.6895-.2041.5369-.7782.5133-.8841-.0363-.0387-.2011-.2268-.4751-.4179-.609-.4386-.3072-.4374-.6155.0055-1.4837.3962-.7766.2481-1.3262-.3574-1.3262-.4254,0-2.9728.9925-3.5966,1.4012-.2425.1589-.6751.2621-.9612.2293-.4647-.0533-.5222-.1346-.5392-.7625-.0105-.3866-.0937-.7775-.185-.8688s-.7896-.1909-1.5519-.2212c-1.2872-.0513-1.3902-.0856-1.4463-.4812-.0332-.2343.0393-.5462.1612-.693.2533-.3052,1.0223-.3582,1.1928-.0822.2121.3432,1.0312.188,1.4623-.2772.2355-.2541.5434-.4635.6842-.4654.1408-.0018.5325-.3363.8705-.7433.765-.9213.6849-1.5807-.2897-2.384-.563-.4641-.6272-.5898-.4251-.8333.3074-.3704.8611-.3685,1.0038.0034.2031.5294.9169.2278,1.2776-.5398.3171-.6749.368-.7054.985-.5896.8084.1517,1.1119-.0806,1.3732-1.0511.1783-.6623.1561-.784-.2157-1.1797-.228-.2427-.608-.4413-.8444-.4413-.303,0-.4298-.1064-.4298-.3604,0-.4984.4857-.7225,1.3226-.6102,1.2806.1718,1.6053-.6119.8768-2.1166-.4685-.9678-.3761-1.2795.4858-1.6396.3616-.1511.7005-.3869.7532-.524.1362-.3551-.5828-1.7999-1.3108-2.6339-.5636-.6456-.6546-.6873-1.0185-.467-.3554.2151-.45.1876-.8536-.2479-.369-.3982-.5046-.4478-.7243-.2655-.1487.1234-.2704.4663-.2704.762,0,.343-.1171.5812-.3234.6579-.1779.0662-.547.2834-.8204.4826-.3657.2666-.7805.3587-1.5709.3486-.5907-.0075-1.2948.0706-1.5647.1736-.3609.1377-.7963.109-1.6455-.1086-1.3074-.3349-1.5758-.2878-2.8145.4939-.8819.5566-1.3157.5848-.8777.0572.1726-.208.1812-.4194.0341-.8413-.2057-.5901-.1302-1.0125.2642-1.4772.1294-.1525.2623-.5212.2953-.8194.0497-.4485-.0197-.5615-.402-.6544-.2951-.0717-.4839-.2638-.5226-.5318-.0333-.2308-.1792-.4651-.3243-.5208s-.3978-.3838-.5617-.7292c-.3486-.7346-.1264-1.18.5887-1.18.2357,0,.4799-.0832.5427-.1848.1533-.2481,1.3731-.2345,2.1131.0234.5688.1983.6364.1699,1.4137-.5929.9374-.92,1.0171-1.3126.3301-1.6256-.4524-.2062-.478-.281-.3687-1.0788.1326-.9671.5008-1.4714,1.3316-1.8232.313-.1326.6716-.3645.7969-.5155.1456-.1754.4404-.2459.8169-.1954.8585.1151,1.8681-.4416,1.9407-1.07.0522-.452.1241-.4969.7392-.4614.6643.0384.6829.0216.7396-.6666.0746-.9065-.2106-1.2346-1.0736-1.2346-.6651,0-.6977-.0296-.8107-.7361-.081-.5063-.266-.8333-.5928-1.0474-.4027-.2639-.4577-.4041-.3608-.9206.0804-.4286.0014-.8305-.2662-1.3552-.4439-.8701-.6219-.9171-1.0426-.2751-.2484.379-.4078.449-.8183.3588-.2836-.0623-.5635-.0252-.6308.0837-.2457.3976-.599.1736-1.0034-.636-.3171-.635-.5189-.8317-.8535-.8317-.241,0-.4896-.0832-.5524-.1848-.0628-.1016-.2839-.1848-.4912-.1848s-.6051-.2442-.884-.5427l-.507-.5428-.9663.2833c-.5315.1558-1.015.2345-1.0746.175-.0595-.0595.0377-.4319.2161-.8275.2561-.5679.2802-.8017.1148-1.1108-.244-.456-.7907-.5117-1.1206-.1143-.2489.2999-1.1089.3843-1.1089.1088,0-.205,1.0696-1.1253,1.3079-1.1253.1773,0,.9099-.6696.9099-.8317,0-.0508-.3259-.0924-.7241-.0924-.8801,0-1.3088-.1484-1.3088-.4532,0-.3053.5573-.7848,1.0165-.8747.2451-.048.3513-.1945.3153-.4349-.0299-.1994-.051-.6806-.047-1.0694.0068-.6574-.0282-.7045-.5001-.6735-.7858.0518-.8135.0253-.4902-.4681.1666-.2543.2619-.6193.2117-.8112s-.023-.4592.0604-.5941c.2358-.3816-.1676-.7163-.7282-.6042-.6452.129-1.4357-.4633-1.2531-.939.0952-.2481.2693-.3054.7239-.2383.3292.0486,1.0559-.0639,1.615-.2501.5591-.1861,1.2523-.3863,1.5405-.4448.2882-.0585.7136-.3109.9453-.5609.4579-.494.8454-.5641,1.4199-.2566.2817.1508.4755.1287.813-.0924.2437-.1597.6789-.2904.9671-.2904s.6119-.088.7194-.1954c.1075-.1075.6647-.2439,1.2382-.3031.5735-.0592,1.0526-.1999,1.0647-.3128.0532-.4989-.1011-.7899-.7781-1.4669-.3972-.3972-.7223-.8243-.7223-.9491,0-.4392-.6958-.8705-1.3253-.8214-.8151.0636-1.4042-.1464-1.6384-.5841-.2181-.4075-.9258-.4704-1.4697-.1307-.4969.3103-.7831-.0062-.8115-.8977-.0214-.6727.0153-.7155,1.0404-1.2111,1.1053-.5344,1.3237-.8561.693-1.021-.2033-.0532-.3696-.1689-.3696-.2573s-.3251-.3758-.7224-.6387c-.6858-.4538-.7505-.4636-1.2751-.1923-.304.1572-.8393.6207-1.1896,1.0299-.6238.7287-1.278.9597-1.536.5423-.0686-.111-.1359-.7971-.1495-1.5247-.0245-1.3062-.0324-1.3263-.6254-1.5873-.6843-.3012-.7699-.6485-.231-.9369.2033-.1088.3696-.3352.3696-.5031,0-.2384.1136-.1964.5183.1913.6371.6104,1.1019.6339,1.3175.0669.1997-.5253,1.0541-1.114,1.4155-.9754.1455.0558.4634.0108.7066-.0999.4007-.1826.4379-.3013.3972-1.268-.0513-1.2182.1934-1.6507,1.1464-2.0265.5167-.2037.7252-.1918,1.4427.0822.7826.2989.8614.2997,1.1785.0128.56-.5068.5992-1.2341.095-1.7658-.4963-.5235-.3976-.8541.2836-.9499.3865-.0544.4554-.1551.4213-.6162-.0296-.4003.1162-.713.5327-1.1427.8152-.8411.626-1.1869-.5717-1.045-1.1896.1409-1.3723-.1903-.681-1.2348.3552-.5367.4836-.9695.4836-1.6301,0-1.0889.3772-1.5111,1.3502-1.5111.5208,0,.7453-.1085.9866-.4768.266-.406.4039-.4596.9283-.3613.5349.1004.6159.0658.6159-.2625,0-.2128-.1212-.378-.2772-.378-.3516,0-.3588-.3581-.0125-.6265.447-.3466.3651-2.5878-.1168-3.1966-.3443-.4349.6755-1.55,1.1496-1.2569.0995.0615.181.4812.181.9326,0,.8171.2469,1.0544.6635.6377.1007-.1007.5687-.2359,1.04-.3005l.8569-.1175.0596.6239c.0527.5511.1283.6306.6485.681.715.0692,1.6304-.3744,1.9331-.9368.1225-.2277.2055-.7134.1844-1.0795-.0237-.4117.0697-.7552.2448-.9005.3964-.329.3528-.6518-.1327-.9811l-.4158-.282.5544-.2265c.3049-.1246.9703-.237,1.4785-.2498.5638-.0142,1.1233-.158,1.4352-.3688.3873-.2618.6907-.3168,1.2522-.227.6087.0973.7607.0602.851-.2079.0605-.1795.2768-.6862.4807-1.126.3258-.7029.4264-.7856.8309-.6841,1.3997.3513,1.471.3418,1.9107-.2528.2332-.3155.5243-.5736.6468-.5736s.2706-.1247.3291-.2772c.1609-.4193.4756-.3328.6724.1848.1506.3962.2915.462.9887.462.4471,0,1.1666-.1247,1.5987-.2772s1.0199-.2772,1.306-.2772.5733-.0857.638-.1905c.0669-.1083.3799-.1413.7253-.0765.5492.103.6469.0503,1.0171-.5488.3385-.5476.5174-.6627,1.0305-.6627.3415,0,.6754-.0883.7421-.1962.0667-.1079.3296-.2754.5841-.3722.3535-.1344.4273-.2518.3122-.4968-.0829-.1765-.1537-.9446-.1574-1.7069l-.0067-1.3861.6783.0524c.5301.0409.742-.0387.9703-.3645.1606-.2293.292-.5897.292-.8008,0-.5049.3409-.8275.8744-.8275.237,0,.4788-.1249.5374-.2776.1974-.5145,1.7128-1.3971,2.1921-1.2768.2425.0609.5497.0405.6825-.0453s.3663-.1605.5187-.166c.1525-.0055.5777-.075.945-.1544.5644-.1221.8295-.0532,1.7125.4451.9984.5635,1.065.5763,1.5037.2888.2525-.1654.4591-.3723.4591-.4598s.2176-.2006.4835-.2514c.544-.104,1.0818.322,1.3729,1.0877.1542.4055.2544.4524.7394.3459.7083-.1556,1.1358.166.9905.745-.1239.4935.1993,1.1973.5498,1.1973.3938,0,.9266.7114,1.2234,1.6336.2084.6475.3805.876.693.9204.3143.0446.4158-.0327.4158-.3169,0-.2068.1871-.4722.4158-.5899.2287-.1176.6445-.4272.9241-.6879.4395-.4099.5082-.6164.5082-1.5271,0-.906.0616-1.0934.4411-1.3421.2426-.159.6212-.5803.8412-.9364.3577-.5787.3774-.7315.1858-1.4417-.2837-1.052-.4082-3.9614-.1873-4.3743.1268-.237.0735-.4755-.1944-.8684-.2031-.2979-.451-.708-.551-.9112-.1992-.4051-.4142-.7718-1.0438-1.7801-.4677-.7491-.5516-1.7832-.157-1.9346.1423-.0546.5677-.5997.9452-1.2113.5045-.8173.6318-1.1666.4805-1.3179-.1133-.1133-.2064-.4596-.2071-.7696-.0006-.31-.1254-.8019-.2772-1.093-.5129-.9834-.3781-1.2805,1.0176-2.2428,1.3182-.9089,1.4565-1.1304,1.0813-1.7311-.1554-.2488-.1588-.4937-.0127-.9128.1686-.4838.1421-.6459-.1708-1.0436-.4104-.5217-.607-1.5092-.3341-1.6779.2462-.1522.2184-.7089-.0488-.9761-.1233-.1233-.2423-.723-.2644-1.3325-.0377-1.0388-.0085-1.1247.4655-1.3698.2781-.1438.6032-.4756.7225-.7374.1711-.3754.3494-.4759.845-.4759.3455,0,.7348-.1285.8651-.2855.1904-.2294.4776-.2618,1.4619-.1648,1.0017.0987,1.2699.0665,1.4716-.1765.3599-.4336.5678-.373,1.2409.3619.4428.4834.6187.8652.66,1.4323.0529.7278.1105.7991.9802,1.2141.8172.3899.8787.4577.532.5859-.2156.0798-.4563.3803-.5349.668-.4661,1.7061-.4345,2.278.1694,3.0698.3418.4481.4724.7913.3945,1.0367-.064.2018-.0369.5176.0603.7018.0972.1842.2739,1.5401.3927,3.0131.1188,1.473.2857,2.762.3708,2.8646.0851.1026.2105.8102.2786,1.5726s.2493,2.0868.4026,2.9432c.3913,2.1857.2238,3.2774-.7684,5.0081-.648,1.1304-.8206,1.6315-.9228,2.6798-.0691.7092-.2537,1.6931-.4101,2.1865-.1886.5949-.2446,1.1971-.1663,1.7874.1.7539.0423,1.0261-.377,1.777-.4741.8491-.4856.9327-.2712,1.9705.3329,1.6119,1.4204,3.6685,3.1975,6.047.8716,1.1666,1.7511,2.4537,1.9545,2.8603,1.0145,2.0282,1.4518,5.0474,1.0256,7.08-.2807,1.3384-.1296,3.0661.3762,4.3026.3622.8855.5758,4.2776.3016,4.79-.1173.2192-.3217,1.3839-.4541,2.5883-.2151,1.9559-.2059,2.4048.0861,4.2041.1798,1.1079.4757,2.2988.6576,2.6464.3243.6198.7348,2.4037.9321,4.051.0548.4574-.022,1.7973-.1706,2.9776-.208,1.6518-.2271,2.5241-.0827,3.7886.2734,2.3947.253,8.4392-.033,9.7745-.3001,1.4015-.4826,1.7495-2.1332,4.0681-.7425,1.043-1.9495,2.9132-2.6824,4.156-.7329,1.2428-1.6,2.5621-1.9269,2.9317-1.2595,1.4241-3.1086,3.8256-3.428,4.4521-.2693.5282-.3305,1.0684-.3149,2.7808.015,1.6538-.0461,2.2279-.2755,2.5874-.1621.2541-.4375,1.0618-.6119,1.7949-.301,1.2651-.3003,1.468.0139,3.9898l.331,2.657-.421,1.1547c-.3591.9849-.3882,1.2341-.1976,1.6942.1229.2967.1765.7742.1191,1.0611-.0734.3673-.0066.6053.2258.8043.2841.2432.32.5245.2579,2.0184-.0854,2.0528-.0877,2.2363-.0511,4.0739.0338,1.6973-.1613,2.1332-1.0276,2.2957-.8067.1513-1.2598.7206-.9839,1.2361.1476.2757.3181.3358.7233.2547.683-.1366.8977.1966.2785.432-.5376.2044-.5539.2495-.2608.7188.2597.4159-.1336,1.4532-.6081,1.6039-.167.053-.4059.3431-.5308.6447-.2658.6418-.4632.6896-.7367.1787-.2346-.4384-.6056-.4761-.9231-.0936-.1843.222-.1677.4053.0846.937.4462.9404.292,1.213-.5541.9794-.5416-.1495-.7373-.129-.9952.1044-.4694.4248-.9233.3555-1.1236-.1715-.229-.6023-.7392-.611-.7392-.0126,0,.2978-.2027.591-.6006.8689-.7643.5338-.8716.6942-.875,1.3087-.0029.5107.5722,1.0077.9185.7937.0959-.0593.4432-.482.7716-.9394.5409-.7532.6503-.8204,1.1616-.7129.3105.0652.7724.3115,1.0265.5471.3935.365.5723.408,1.2061.2901,1.2685-.2359,1.5812.1349.7345.8711-.2541.221-.462.5181-.462.6604s-.1247.3065-.2772.365c-.1797.0689-.2772.3555-.2772.8145,0,.8122-.2583,1.1516-.8765,1.1516-.5536,0-2.2725,1.2656-2.9459,2.169-.6462.8669-.7592.9483-1.1671.8417-.4907-.1283-.5965.2209-.1809.5971.4362.3948.4569.74.0869,1.4495-.3602.6906-.3492.7945.0967.9111.32.0837.3627.2182.3017.9502-.0392.4706-.2186,1.0157-.4003,1.2165-.1811.2001-.3377.5923-.3479.8716-.0142.3856-.1299.531-.4807.6041-.2541.0529-.7648.3796-1.1349.7258-.3701.3462-1.0354.7656-1.4785.932-.622.2335-.7914.3844-.7432.6619.1499.8635.0355,1.9349-.2538,2.3764-.5191.7922.0521.5759,1.1024-.4174,1.1225-1.0617,1.6099-1.3498,1.9388-1.1465.3164.1956-.0239,1.2979-.5467,1.7711-.1995.1805-.3627.4272-.3627.5481s-.176.3784-.3911.572c-.6291.5662-1.5063,1.936-1.6313,2.5472-.0932.4555-.2391.5934-.756.7146-.6879.1612-2.2861.2693-2.5713.1739Z" fill="#a8c0d4" opacity=".5"/>
    <g>
      <rect x="94.8613" y="71.3147" width="254.7097" height="120.2262" fill="none"/>
      <path d="M100.4781,85.8944c2.1602-3.9111,5.1719-6.959,9.0361-9.1436,3.8633-2.1836,8.2441-3.2764,13.1396-3.2764,6,0,11.1357,1.584,15.4082,4.752,4.2715,3.168,7.1279,7.4883,8.5674,12.96h-13.5352c-1.0088-2.1113-2.4375-3.7188-4.2842-4.8242-1.8486-1.1035-3.9492-1.6553-6.2998-1.6553-3.793,0-6.8652,1.3203-9.2168,3.96s-3.5273,6.168-3.5273,10.584,1.1758,7.9443,3.5273,10.584c2.3516,2.6406,5.4238,3.96,9.2168,3.96,2.3506,0,4.4512-.5518,6.2998-1.6562,1.8467-1.1035,3.2754-2.7109,4.2842-4.8242h13.5352c-1.4395,5.4727-4.2959,9.7812-8.5674,12.9238-4.2725,3.1445-9.4082,4.7168-15.4082,4.7168-4.8955,0-9.2764-1.0918-13.1396-3.2764-3.8643-2.1836-6.876-5.2197-9.0361-9.1084-2.1602-3.8877-3.2402-8.3271-3.2402-13.3193s1.0801-9.4434,3.2402-13.3564Z" fill="#a8c0d4"/>
      <path d="M168.2945,121.787c-3.96-2.208-7.1045-5.292-9.4316-9.252-2.3291-3.96-3.4922-8.4121-3.4922-13.3564s1.1631-9.3838,3.4922-13.3203c2.3271-3.9346,5.4717-7.0068,9.4316-9.2158,3.96-2.207,8.3164-3.3115,13.0684-3.3115s9.1074,1.1045,13.0674,3.3115c3.9609,2.209,7.0801,5.2812,9.3604,9.2158,2.2793,3.9365,3.4199,8.377,3.4199,13.3203s-1.1514,9.3965-3.4561,13.3564c-2.3037,3.96-5.4248,7.0439-9.3594,9.252-3.9365,2.208-8.2803,3.3115-13.0322,3.3115s-9.1084-1.1035-13.0684-3.3115ZM191.0464,109.8349c2.4238-2.6875,3.6367-6.2393,3.6367-10.6562,0-4.4639-1.2129-8.0283-3.6367-10.6924s-5.6514-3.9951-9.6836-3.9951c-4.0801,0-7.333,1.3203-9.7559,3.96-2.4248,2.6396-3.6367,6.2158-3.6367,10.7275,0,4.4639,1.2119,8.0283,3.6367,10.6924,2.4229,2.6641,5.6758,3.9961,9.7559,3.9961,4.0322,0,7.2598-1.3438,9.6836-4.0322Z" fill="#a8c0d4"/>
      <path d="M243.0972,124.5946l-10.5127-19.0801h-2.9512v19.0801h-12.3125v-50.5439h20.6641c3.9834,0,7.3799.6963,10.1885,2.0879,2.8076,1.3926,4.9072,3.3008,6.2998,5.7236,1.3916,2.4248,2.0879,5.125,2.0879,8.1006,0,3.3604-.9482,6.3604-2.8438,9-1.8975,2.6406-4.6924,4.5127-8.3887,5.6162l11.6641,20.0156h-13.8955ZM229.6333,96.8026h7.6318c2.2559,0,3.9473-.5508,5.0762-1.6562,1.127-1.1035,1.6914-2.6641,1.6914-4.6797,0-1.9189-.5645-3.4316-1.6914-4.5361-1.1289-1.1035-2.8203-1.6562-5.0762-1.6562h-7.6318v12.5283Z" fill="#a8c0d4"/>
      <path d="M275.8873,123.2987c-2.9287-1.1992-5.2686-2.9756-7.0205-5.3281-1.7529-2.3516-2.6768-5.1836-2.7715-8.4961h13.1035c.1914,1.8721.8389,3.3008,1.9443,4.2842,1.1035.9844,2.543,1.4756,4.3193,1.4756,1.8242,0,3.2637-.4189,4.3203-1.2598,1.0557-.8389,1.584-2.0039,1.584-3.4922,0-1.2471-.4209-2.2793-1.2598-3.0957-.8408-.8154-1.8721-1.4873-3.0957-2.0156-1.2246-.5283-2.9648-1.1279-5.2207-1.8008-3.2646-1.0078-5.9287-2.0156-7.9922-3.0234s-3.8398-2.4951-5.3271-4.4639c-1.4883-1.9678-2.2324-4.5361-2.2324-7.7041,0-4.7041,1.7031-8.3877,5.1123-11.0518,3.4072-2.6641,7.8477-3.9961,13.3193-3.9961,5.5684,0,10.0557,1.332,13.4648,3.9961,3.4072,2.6641,5.2305,6.3711,5.4717,11.124h-13.3203c-.0967-1.6318-.6963-2.916-1.7998-3.8525-1.1045-.9355-2.5195-1.4043-4.248-1.4043-1.4883,0-2.6885.3965-3.5996,1.1885-.9131.792-1.3682,1.9326-1.3682,3.4199,0,1.6328.7666,2.9043,2.3037,3.8164,1.5361.9121,3.9355,1.8965,7.2002,2.9512,3.2637,1.1055,5.915,2.1602,7.9561,3.168,2.0391,1.0088,3.8037,2.4736,5.292,4.3926,1.4873,1.9199,2.2314,4.3916,2.2314,7.416,0,2.8799-.7324,5.4971-2.1953,7.8477-1.4648,2.3525-3.5889,4.2246-6.3721,5.6162-2.7842,1.3926-6.0732,2.0879-9.8643,2.0879-3.6963,0-7.0088-.5996-9.9355-1.7998Z" fill="#a8c0d4"/>
      <path d="M327.396,83.9149v10.2236h16.4873v9.5039h-16.4873v11.0879h18.6475v9.8643h-30.96v-50.5439h30.96v9.8643h-18.6475Z" fill="#a8c0d4"/>
      <path d="M132.23,137.2186c3.9834,2.1123,7.0674,5.0762,9.252,8.8916,2.1836,3.8164,3.2764,8.2207,3.2764,13.2119,0,4.9453-1.0928,9.3369-3.2764,13.1768-2.1846,3.8408-5.2812,6.8164-9.2881,8.9277-4.0088,2.1123-8.6523,3.168-13.9316,3.168h-18.9365v-50.5439h18.9365c5.3271,0,9.9824,1.0566,13.9678,3.168ZM128.3423,170.1229c2.5918-2.5439,3.8877-6.1436,3.8877-10.8008s-1.2959-8.2793-3.8877-10.8711-6.2168-3.8887-10.8721-3.8887h-5.832v29.376h5.832c4.6553,0,8.2793-1.2715,10.8721-3.8154Z" fill="#0A0E1A"/>
      <path d="M177.4458,184.5946l-10.5127-19.0801h-2.9512v19.0801h-12.3125v-50.5439h20.6641c3.9834,0,7.3799.6963,10.1885,2.0879,2.8076,1.3926,4.9072,3.3008,6.2998,5.7236,1.3916,2.4248,2.0879,5.125,2.0879,8.1006,0,3.3604-.9482,6.3604-2.8438,9-1.8975,2.6406-4.6924,4.5127-8.3887,5.6162l11.6641,20.0156h-13.8955ZM163.982,156.8026h7.6318c2.2559,0,3.9473-.5508,5.0762-1.6562,1.127-1.1035,1.6914-2.6641,1.6914-4.6797,0-1.9189-.5645-3.4316-1.6914-4.5361-1.1289-1.1035-2.8203-1.6562-5.0762-1.6562h-7.6318v12.5283Z" fill="#0A0E1A"/>
      <path d="M306.1578,184.5946h-12.3115l-20.5918-31.1758v31.1758h-12.3125v-50.5439h12.3125l20.5918,31.3203v-31.3203h12.3115v50.5439Z" fill="#0A0E1A"/>
      <path d="M327.398,143.9149v10.2236h16.4873v9.5039h-16.4873v11.0879h18.6475v9.8643h-30.96v-50.5439h30.96v9.8643h-18.6475Z" fill="#0A0E1A"/>
    </g>
    <g>
      <path d="M243.9659,139.8307c2.5468,2.9565,1.8621,8.3889-1.9382,9.9459-2.7084,1.1096-5.7754-.3468-7.1151,3.4081-.7192,2.0156-.7081,10.2134-.1125,12.3033.5013,1.7591,1.8989,3.0689,3.7507,3.265,1.6617.176,2.3217-.2579,3.9821.6948,3.3911,1.9456,3.9939,7.0021,1.4017,9.8346-2.3108,2.5251-6.8141,2.218-8.7346-.6289-1.3773-2.0417-.6786-4.0621-1.559-6.1589-.599-1.4267-2.4179-2.8598-3.969-3.0467-1.3317-.1604-6.9349-.1783-8.0805.1161-.2946.0757-1.4271.6689-1.7075.8648-3.5849,2.5045-.3543,8.1478-5.3016,10.1337-6.1275,2.4596-10.5617-4.9473-6.6649-9.7069,2.8697-3.5051,6.8449-.6615,8.7286-4.367,1.0371-2.04.963-8.7305.7519-11.193-.116-1.3526-.6187-3.0322-1.6599-3.953-2.4551-2.1713-6.0866.2473-8.358-3.8022-3.4519-6.1543,3.493-12.6325,8.4839-8.2519,3.2625,2.8635.5001,7.0866,4.3471,9.6851,1.6515,1.1155,6.9044,1.0305,8.9965.8436,1.4753-.1318,3.1947-1.0366,4.0429-2.2711,1.4917-2.1708.5646-3.9842,1.3313-6.1527,1.3491-3.8157,6.7907-4.5733,9.3842-1.5627Z" fill="#0A0E1A"/>
      <path d="M230.2503,172.0269c2.3275.2907,1.2126,4.7268,1.4052,6.6636.2348,2.3614,1.8124,4.7624,4.3231,5.0314,1.8546.1987,6.6007.2276,8.4244.005,5.8545-.7147,3.5996-9.5741,3.8383-13.4399-1.5238-5.7786-7.0666-2.927-10.5196-3.979-.7085-.2159-1.0476-.8044-.924-1.5316h8.0673c1.6144,0,4.198,2.894,4.7408,4.3797.8964,2.4533.8478,10.3574-.2433,12.7488-.551,1.2077-1.6848,2.3874-2.8893,2.9572-2.316,1.0956-10.0707,1.0928-12.4096.0736-1.4065-.613-3.8133-3.0772-3.8133-4.6058v-8.303Z" fill="#0A0E1A"/>
      <path d="M215.2849,164.7764c.4421.4533-.3844,1.2997-.9746,1.481-3.343,1.0264-7.8213-1.5876-9.8979,2.9636-.8394,1.8397-.7812,7.5318-.5936,9.7138.1815,2.1104,1.6501,4.4618,3.8872,4.7657,1.6912.2298,6.6979.2344,8.4031.0264,5.3088-.6478,3.571-7.1821,4.0998-10.4002.2195-1.336,1.4938-2.1641,1.6347-.0242.7164,10.8782-2.4445,13.0634-12.9992,12.2998-2.7681-.2003-5.095-1.4823-6.156-4.1337-.8121-2.0294-.7707-10.2723-.039-12.3737.5269-1.5131,2.9225-4.3185,4.5681-4.3185,1.0732,0,7.7856-.2888,8.0673,0Z" fill="#0A0E1A"/>
      <path d="M236.7976,154.2515c-.0422-.0433-.0253-.8251.0395-1.0128.3767-1.0911,5.4928-.4765,6.8024-.6805,1.8566-.2893,3.5044-1.5318,4.1949-3.2885.6597-1.6784.6882-8.9628-.0007-10.6175-.4171-1.002-1.5923-2.1645-2.62-2.5249-1.7561-.6157-8.8878-.5723-10.6164.1361-1.6503.6763-2.758,2.5735-2.9454,4.3044-.1621,1.4972.3997,5.1843-.3549,6.1936-.9071,1.2132-1.2276.1726-1.2918-.802-.2601-3.9496-.3736-9.4937,3.922-11.3018,1.8845-.7932,7.3213-.6847,9.5455-.5309,2.408.1666,4.8362,1.147,5.8352,3.519.9391,2.2298.8628,10.1066-.003,12.393-.6552,1.7302-3.2385,4.213-5.1413,4.213-.9889,0-7.1089.264-7.3658,0Z" fill="#0A0E1A"/>
      <path d="M208.153,154.2515c-2.3884-.2825-5.0983-2.507-5.6147-4.9089-.3276-1.5238-.4504-6.3976-.3579-8.0815.1577-2.8699.9221-5.5749,3.8569-6.6672,1.9011-.7076,9.6342-.7291,11.5796-.0994,5.2861,1.711,4.3006,8.356,3.9792,12.7408-.6931.1354-1.2159-.4901-1.3509-1.1025-.7024-3.186,1.4503-8.5404-3.0918-10.0051-1.7665-.5696-8.5475-.5936-10.2855-.0012-1.2218.4164-2.2756,1.472-2.6891,2.6897-.641,1.8877-.5527,8.5075.1045,10.4184.6835,1.9876,2.3537,3.0424,4.3978,3.3194,1.6378.222,4.4229-.2702,5.7363.1096.8394.2428,1.1341,1.5881.5168,1.5881-2.0585,0-4.8319.2305-6.7812,0Z" fill="#0A0E1A"/>
    </g>
  </g>
  <g>
    <path d="M115.2564,199.3754v9.8281h-2.3945v-5.894l-2.1973,5.894h-1.9326l-2.2119-5.9082v5.9082h-2.3936v-9.8281h2.8281l2.7578,6.8042,2.7295-6.8042h2.8145Z" fill="#0A0E1A"/>
    <path d="M119.0845,208.6576c-.7695-.4292-1.3809-1.0293-1.834-1.7993-.4521-.77-.6787-1.6353-.6787-2.5967s.2266-1.8247.6787-2.5903c.4531-.7651,1.0645-1.3623,1.834-1.792.7705-.4292,1.6172-.6436,2.541-.6436.9248,0,1.7715.2144,2.541.6436.7705.4297,1.377,1.0269,1.8203,1.792.4434.7656.665,1.6289.665,2.5903s-.2236,1.8267-.6719,2.5967-1.0547,1.3701-1.8203,1.7993-1.6094.6436-2.5342.6436c-.9238,0-1.7705-.2144-2.541-.6436ZM123.5093,206.3334c.4707-.5225.707-1.2129.707-2.0718,0-.8682-.2363-1.561-.707-2.0791-.4717-.5181-1.0996-.7769-1.8838-.7769-.793,0-1.4258.2568-1.8965.77-.4717.5132-.707,1.2085-.707,2.0859,0,.8677.2354,1.561.707,2.0791.4707.5176,1.1035.7769,1.8965.7769.7842,0,1.4121-.2612,1.8838-.7842Z" fill="#0A0E1A"/>
    <path d="M132.9937,209.2035l-2.0439-3.71h-.5742v3.71h-2.3936v-9.8281h4.0176c.7744,0,1.4355.1357,1.9814.4062s.9541.6416,1.2246,1.1128c.2705.4717.4062.9966.4062,1.5752,0,.6533-.1846,1.2368-.5527,1.75-.3691.5132-.9131.8774-1.6309,1.0918l2.2676,3.8921h-2.7021ZM130.3755,203.7997h1.4844c.4385,0,.7676-.1074.9873-.3223.2188-.2144.3281-.5181.3281-.9102,0-.373-.1094-.667-.3281-.8818-.2197-.2144-.5488-.3218-.9873-.3218h-1.4844v2.436Z" fill="#0A0E1A"/>
    <path d="M143.6333,202.4833c-.1768-.3262-.4316-.5762-.7627-.749-.3311-.1724-.7207-.2588-1.1689-.2588-.7744,0-1.3955.2544-1.8623.7632s-.6992,1.1875-.6992,2.0366c0,.9058.2441,1.6128.7344,2.1211.4902.5088,1.1641.7632,2.0234.7632.5879,0,1.085-.1494,1.4912-.4482.4053-.2983.7021-.728.8887-1.2876h-3.0381v-1.7642h5.208v2.2261c-.1777.5972-.4785,1.1528-.9033,1.666s-.9639.9287-1.6172,1.2461-1.3906.4761-2.2119.4761c-.9707,0-1.8359-.2124-2.5967-.6372s-1.3535-1.0151-1.7783-1.771c-.4248-.7563-.6367-1.6191-.6367-2.5903,0-.9702.2119-1.8359.6367-2.5967s1.0156-1.3535,1.7715-1.7783c.7559-.4243,1.6191-.6367,2.5898-.6367,1.1758,0,2.168.2847,2.9746.854.8076.5693,1.3418,1.3579,1.6035,2.3657h-2.6465Z" fill="#0A0E1A"/>
    <path d="M153.896,207.4677h-3.668l-.5879,1.7358h-2.5068l3.5566-9.8281h2.7715l3.5566,9.8281h-2.5342l-.5879-1.7358ZM153.2798,205.6195l-1.2178-3.5981-1.2041,3.5981h2.4219Z" fill="#0A0E1A"/>
    <path d="M166.8882,209.2035h-2.3945l-4.0039-6.062v6.062h-2.3936v-9.8281h2.3936l4.0039,6.0903v-6.0903h2.3945v9.8281Z" fill="#0A0E1A"/>
    <path d="M175.6949,199.3754v1.918h-2.6045v7.9102h-2.3936v-7.9102h-2.6045v-1.918h7.6025Z" fill="#0A0E1A"/>
    <path d="M179.2916,199.3754v9.8281h-2.3936v-9.8281h2.3936Z" fill="#0A0E1A"/>
    <path d="M185.5708,206.3617c-.3223-.187-.5771-.4414-.7637-.7632s-.2793-.6743-.2793-1.0571c0-.3921.0928-.749.2793-1.0708.1865-.3223.4414-.5762.7637-.7632.3213-.1865.6738-.2798,1.0566-.2798.3916,0,.749.0933,1.0713.2798.3213.187.5762.4409.7627.7632.1865.3218.2803.6787.2803,1.0708,0,.3828-.0938.7354-.2803,1.0571s-.4414.5762-.7627.7632c-.3223.1865-.6797.2798-1.0713.2798-.3828,0-.7354-.0933-1.0566-.2798Z" fill="#0A0E1A"/>
    <path d="M194.2017,201.6786c.4199-.7607,1.0059-1.3535,1.7568-1.7783.752-.4243,1.6035-.6367,2.5557-.6367,1.166,0,2.165.3081,2.9961.9238.8301.6162,1.3857,1.4561,1.666,2.52h-2.6328c-.1953-.4106-.4736-.7231-.833-.938-.3594-.2144-.7676-.3218-1.2246-.3218-.7373,0-1.335.2568-1.792.77s-.6855,1.1992-.6855,2.0576c0,.8589.2285,1.5449.6855,2.0581.457.5137,1.0547.77,1.792.77.457,0,.8652-.1069,1.2246-.3218s.6377-.5273.833-.938h2.6328c-.2803,1.064-.8359,1.9019-1.666,2.5127-.8311.6118-1.8301.9175-2.9961.9175-.9521,0-1.8037-.2124-2.5557-.6372-.751-.4248-1.3369-1.0151-1.7568-1.771-.4199-.7563-.6299-1.6191-.6299-2.5903,0-.9702.21-1.8359.6299-2.5967Z" fill="#0A0E1A"/>
    <path d="M210.7642,207.4677h-3.668l-.5879,1.7358h-2.5068l3.5566-9.8281h2.7715l3.5566,9.8281h-2.5342l-.5879-1.7358ZM210.148,205.6195l-1.2178-3.5981-1.2041,3.5981h2.4219Z" fill="#0A0E1A"/>
    <path d="M215.1871,201.6786c.4199-.7607,1.0059-1.3535,1.7568-1.7783.752-.4243,1.6035-.6367,2.5557-.6367,1.166,0,2.165.3081,2.9961.9238.8301.6162,1.3857,1.4561,1.666,2.52h-2.6328c-.1953-.4106-.4736-.7231-.833-.938-.3594-.2144-.7676-.3218-1.2246-.3218-.7373,0-1.335.2568-1.792.77s-.6855,1.1992-.6855,2.0576c0,.8589.2285,1.5449.6855,2.0581.457.5137,1.0547.77,1.792.77.457,0,.8652-.1069,1.2246-.3218s.6377-.5273.833-.938h2.6328c-.2803,1.064-.8359,1.9019-1.666,2.5127-.8311.6118-1.8301.9175-2.9961.9175-.9521,0-1.8037-.2124-2.5557-.6372-.751-.4248-1.3369-1.0151-1.7568-1.771-.4199-.7563-.6299-1.6191-.6299-2.5903,0-.9702.21-1.8359.6299-2.5967Z" fill="#0A0E1A"/>
    <path d="M225.855,201.6786c.4199-.7607,1.0059-1.3535,1.7568-1.7783.752-.4243,1.6035-.6367,2.5557-.6367,1.166,0,2.165.3081,2.9961.9238.8301.6162,1.3857,1.4561,1.666,2.52h-2.6328c-.1953-.4106-.4736-.7231-.833-.938-.3594-.2144-.7676-.3218-1.2246-.3218-.7373,0-1.335.2568-1.792.77s-.6855,1.1992-.6855,2.0576c0,.8589.2285,1.5449.6855,2.0581.457.5137,1.0547.77,1.792.77.457,0,.8652-.1069,1.2246-.3218s.6377-.5273.833-.938h2.6328c-.2803,1.064-.8359,1.9019-1.666,2.5127-.8311.6118-1.8301.9175-2.9961.9175-.9521,0-1.8037-.2124-2.5557-.6372-.751-.4248-1.3369-1.0151-1.7568-1.771-.4199-.7563-.6299-1.6191-.6299-2.5903,0-.9702.21-1.8359.6299-2.5967Z" fill="#0A0E1A"/>
    <path d="M238.6929,199.3754v9.8281h-2.3936v-9.8281h2.3936Z" fill="#0A0E1A"/>
    <path d="M246.5474,207.4677h-3.668l-.5879,1.7358h-2.5068l3.5566-9.8281h2.7715l3.5566,9.8281h-2.5342l-.5879-1.7358ZM245.9312,205.6195l-1.2178-3.5981-1.2041,3.5981h2.4219Z" fill="#0A0E1A"/>
    <path d="M255.7593,209.2035l-2.0439-3.71h-.5742v3.71h-2.3936v-9.8281h4.0176c.7744,0,1.4355.1357,1.9814.4062s.9541.6416,1.2246,1.1128c.2705.4717.4062.9966.4062,1.5752,0,.6533-.1846,1.2368-.5527,1.75-.3691.5132-.9131.8774-1.6309,1.0918l2.2676,3.8921h-2.7021ZM253.1412,203.7997h1.4844c.4385,0,.7676-.1074.9873-.3223.2188-.2144.3281-.5181.3281-.9102,0-.373-.1094-.667-.3281-.8818-.2197-.2144-.5488-.3218-.9873-.3218h-1.4844v2.436Z" fill="#0A0E1A"/>
    <path d="M262.2691,199.3754v9.8281h-2.3936v-9.8281h2.3936Z" fill="#0A0E1A"/>
    <path d="M268.5484,206.3617c-.3223-.187-.5771-.4414-.7637-.7632s-.2793-.6743-.2793-1.0571c0-.3921.0928-.749.2793-1.0708.1865-.3223.4414-.5762.7637-.7632.3213-.1865.6738-.2798,1.0566-.2798.3916,0,.749.0933,1.0713.2798.3213.187.5762.4409.7627.7632.1865.3218.2803.6787.2803,1.0708,0,.3828-.0938.7354-.2803,1.0571s-.4414.5762-.7627.7632c-.3223.1865-.6797.2798-1.0713.2798-.3828,0-.7354-.0933-1.0566-.2798Z" fill="#0A0E1A"/>
    <path d="M283.4781,202.4833c-.1768-.3262-.4316-.5762-.7627-.749-.3311-.1724-.7207-.2588-1.1689-.2588-.7744,0-1.3955.2544-1.8623.7632s-.6992,1.1875-.6992,2.0366c0,.9058.2441,1.6128.7344,2.1211.4902.5088,1.1641.7632,2.0234.7632.5879,0,1.085-.1494,1.4912-.4482.4053-.2983.7021-.728.8887-1.2876h-3.0381v-1.7642h5.208v2.2261c-.1777.5972-.4785,1.1528-.9033,1.666s-.9639.9287-1.6172,1.2461-1.3906.4761-2.2119.4761c-.9707,0-1.8359-.2124-2.5967-.6372s-1.3535-1.0151-1.7783-1.771c-.4248-.7563-.6367-1.6191-.6367-2.5903,0-.9702.2119-1.8359.6367-2.5967s1.0156-1.3535,1.7715-1.7783c.7559-.4243,1.6191-.6367,2.5898-.6367,1.1758,0,2.168.2847,2.9746.854.8076.5693,1.3418,1.3579,1.6035,2.3657h-2.6465Z" fill="#0A0E1A"/>
    <path d="M293.7408,207.4677h-3.668l-.5879,1.7358h-2.5068l3.5566-9.8281h2.7715l3.5566,9.8281h-2.5342l-.5879-1.7358ZM293.1246,205.6195l-1.2178-3.5981-1.2041,3.5981h2.4219Z" fill="#0A0E1A"/>
    <path d="M299.565,208.9515c-.5693-.2334-1.0244-.5786-1.3652-1.0361-.3408-.457-.5205-1.0078-.5391-1.6519h2.5479c.0371.3638.1631.6416.3779.833s.4951.2871.8398.2871c.3555,0,.6348-.0815.8408-.2451.2051-.1631.3076-.3896.3076-.6792,0-.2427-.082-.4429-.2451-.6021-.1631-.1582-.3643-.2891-.6016-.3916-.2383-.103-.5771-.2192-1.0156-.3501-.6348-.1963-1.1523-.3921-1.5537-.5879-.4014-.1963-.7471-.4854-1.0361-.8682s-.4336-.8818-.4336-1.498c0-.9146.3311-1.6309.9941-2.1489.6621-.5181,1.5254-.7769,2.5898-.7769,1.082,0,1.9551.2588,2.6182.7769.6621.5181,1.0166,1.2388,1.0635,2.1631h-2.5898c-.0186-.3174-.1357-.5674-.3496-.749-.2148-.1821-.4902-.2729-.8262-.2729-.29,0-.5234.0767-.7002.231-.1777.1538-.2656.3755-.2656.665,0,.3174.1484.5645.4473.7417.2988.1777.7656.3691,1.4004.5742.6348.2148,1.1504.4199,1.5469.6157.3965.1963.7393.481,1.0293.854.2891.3735.4336.854.4336,1.4424,0,.5596-.1426,1.0684-.4268,1.5259-.2852.4575-.6982.8213-1.2393,1.0918-.541.271-1.1807.4058-1.918.4058-.7188,0-1.3623-.1162-1.9316-.3496Z" fill="#0A0E1A"/>
    <path d="M313.648,204.1005c-.2607.4712-.6631.8521-1.2041,1.1411-.541.2896-1.2129.4341-2.0156.4341h-1.4844v3.5278h-2.3936v-9.8281h3.8779c.7842,0,1.4463.1357,1.9883.4062.541.2705.9473.644,1.2178,1.1201.2705.4756.4062,1.022.4062,1.6377,0,.5693-.1309,1.0898-.3926,1.561ZM311.2681,203.4496c.2236-.2148.3359-.5181.3359-.9102s-.1123-.6953-.3359-.9102c-.2236-.2144-.5645-.3218-1.0215-.3218h-1.3027v2.4639h1.3027c.457,0,.7979-.1069,1.0215-.3218Z" fill="#0A0E1A"/>
    <path d="M321.4048,207.4677h-3.668l-.5879,1.7358h-2.5068l3.5566-9.8281h2.7715l3.5566,9.8281h-2.5342l-.5879-1.7358ZM320.7886,205.6195l-1.2178-3.5981-1.2041,3.5981h2.4219Z" fill="#0A0E1A"/>
    <path d="M330.6158,209.2035l-2.0439-3.71h-.5742v3.71h-2.3936v-9.8281h4.0176c.7744,0,1.4355.1357,1.9814.4062s.9541.6416,1.2246,1.1128c.2705.4717.4062.9966.4062,1.5752,0,.6533-.1846,1.2368-.5527,1.75-.3691.5132-.9131.8774-1.6309,1.0918l2.2676,3.8921h-2.7021ZM327.9976,203.7997h1.4844c.4385,0,.7676-.1074.9873-.3223.2188-.2144.3281-.5181.3281-.9102,0-.373-.1094-.667-.3281-.8818-.2197-.2144-.5488-.3218-.9873-.3218h-1.4844v2.436Z" fill="#0A0E1A"/>
    <path d="M341.1294,199.9916c.7754.4106,1.375.9868,1.7998,1.729.4238.7417.6367,1.5981.6367,2.5688,0,.9614-.2129,1.8154-.6367,2.562-.4248.7471-1.0273,1.3257-1.8066,1.7358-.7793.4111-1.6826.6162-2.709.6162h-3.6816v-9.8281h3.6816c1.0361,0,1.9414.2056,2.7158.6162ZM340.3736,206.3895c.5039-.4946.7559-1.1948.7559-2.1001s-.252-1.6099-.7559-2.1138c-.5039-.5044-1.209-.7563-2.1133-.7563h-1.1348v5.7124h1.1348c.9043,0,1.6094-.2476,2.1133-.7422Z" fill="#0A0E1A"/>
  </g>
</svg>