<?xml version="1.0" encoding="UTF-8"?>
<svg xmlns="http://www.w3.org/2000/svg" viewBox="46 28 84 173">
  <path d="M97.9167,196.9882c-.0956-.032-.2725-.3646-.3931-.7392-.292-.907-.502-1.1431-1.0167-1.1431-.5119,0-1.2285-.3011-2.101-.8829-.6481-.4321-1.4575-.4318-1.9947.0009-.4701.3786-.7878.0043-.7878-.9281,0-.7185.0922-.9843.462-1.3317.2541-.2387.462-.6363.462-.8835,0-.2597.1958-.6034.4638-.8142.5787-.4552.4433-.7048-.3823-.7048-.5127,0-.6359-.0716-.6359-.3696,0-.4311-.2336-.479-.5394-.1105-.1183.1425-.4293.3129-.6912.3786-.6136.154-1.1053-.2797-1.3885-1.2251-.1523-.5084-.2972-.6887-.5066-.6306-.1613.0448-.5749.1384-.919.2079-.6027.1217-.6213.1086-.5047-.3558.0877-.3492.0491-.4822-.1399-.4822-.1435,0-.3088.1247-.3673.2772-.1314.3425-.6724.3684-.6724.0322,0-.3272-.7831-1.0487-1.1383-1.0487-.1556,0-.434-.167-.6187-.3711-.3055-.3375-.3646-.3451-.6533-.0838-.2884.261-.3855.2518-1.0596-.0995-.4082-.2127-.7839-.5467-.835-.742-.0834-.3188-.2504-.3511-1.6278-.3148l-1.5349.0404-.1273-.6178c-.07-.3398-.2067-.6971-.3037-.7941-.173-.173-1.2592-.2415-1.9887-.1254-.3131.0498-.3696-.0448-.3696-.6187,0-.3726-.0543-.7319-.1206-.7983-.0664-.0664-.6244-.0216-1.2401.0995-1.3566.2669-1.7644.1578-1.5877-.4247.0695-.2292.2832-.5884.4748-.7983.1916-.2098.3462-.4593.3436-.5544-.0093-.3363-1.3937-.8265-1.9947-.7063-.508.1016-.6195.0462-.9035-.4486-.2547-.4437-.5027-.597-1.1593-.7165-.6808-.1239-.8467-.232-.8967-.5848-.0395-.2784.0759-.529.3234-.7024.5594-.3918.4802-.6976-.4006-1.5451l-.7855-.7558.4422-.3344c.3751-.2836.4422-.4935.4422-1.3818,0-.5761.0713-1.0914.1584-1.1453.0871-.0539.1584-.292.1584-.5293s.1255-.4795.2788-.5383c.1533-.0588.3746-.3172.4917-.5742.2595-.5696.8928-.6348.8928-.0918,0,.6467.506.6189,1.3134-.0722.5286-.4524,1.0912-.7259,1.8062-.878,1.1477-.2441,1.4227-.4824,1.6864-1.4618.1988-.7381.8482-1.3005,1.9035-1.6481.4934-.1626.6843-.3229.6399-.5374-.0501-.2423-.2501-.2958-.9641-.2579-.6453.0342-1.0009-.0428-1.2537-.2716-.2395-.2168-.8331-.3607-1.8474-.4478-1.3901-.1195-1.5264-.1692-1.9515-.7124-.2514-.3212-.651-.6577-.888-.7479-.6094-.2317-1.5414.1351-1.7522.6895-.2041.5369-.7782.5133-.8841-.0363-.0387-.2011-.2268-.4751-.4179-.609-.4386-.3072-.4374-.6155.0055-1.4837.3962-.7766.2481-1.3262-.3574-1.3262-.4254,0-2.9728.9925-3.5966,1.4012-.2425.1589-.6751.2621-.9612.2293-.4647-.0533-.5222-.1346-.5392-.7625-.0105-.3866-.0937-.7775-.185-.8688s-.7896-.1909-1.5519-.2212c-1.2872-.0513-1.3902-.0856-1.4463-.4812-.0332-.2343.0393-.5462.1612-.693.2533-.3052,1.0223-.3582,1.1928-.0822.2121.3432,1.0312.188,1.4623-.2772.2355-.2541.5434-.4635.6842-.4654.1408-.0018.5325-.3363.8705-.7433.765-.9213.6849-1.5807-.2897-2.384-.563-.4641-.6272-.5898-.4251-.8333.3074-.3704.8611-.3685,1.0038.0034.2031.5294.9169.2278,1.2776-.5398.3171-.6749.368-.7054.985-.5896.8084.1517,1.1119-.0806,1.3732-1.0511.1783-.6623.1561-.784-.2157-1.1797-.228-.2427-.608-.4413-.8444-.4413-.303,0-.4298-.1064-.4298-.3604,0-.4984.4857-.7225,1.3226-.6102,1.2806.1718,1.6053-.6119.8768-2.1166-.4685-.9678-.3761-1.2795.4858-1.6396.3616-.1511.7005-.3869.7532-.524.1362-.3551-.5828-1.7999-1.3108-2.6339-.5636-.6456-.6546-.6873-1.0185-.467-.3554.2151-.45.1876-.8536-.2479-.369-.3982-.5046-.4478-.7243-.2655-.1487.1234-.2704.4663-.2704.762,0,.343-.1171.5812-.3234.6579-.1779.0662-.547.2834-.8204.4826-.3657.2666-.7805.3587-1.5709.3486-.5907-.0075-1.2948.0706-1.5647.1736-.3609.1377-.7963.109-1.6455-.1086-1.3074-.3349-1.5758-.2878-2.8145.4939-.8819.5566-1.3157.5848-.8777.0572.1726-.208.1812-.4194.0341-.8413-.2057-.5901-.1302-1.0125.2642-1.4772.1294-.1525.2623-.5212.2953-.8194.0497-.4485-.0197-.5615-.402-.6544-.2951-.0717-.4839-.2638-.5226-.5318-.0333-.2308-.1792-.4651-.3243-.5208s-.3978-.3838-.5617-.7292c-.3486-.7346-.1264-1.18.5887-1.18.2357,0,.4799-.0832.5427-.1848.1533-.2481,1.3731-.2345,2.1131.0234.5688.1983.6364.1699,1.4137-.5929.9374-.92,1.0171-1.3126.3301-1.6256-.4524-.2062-.478-.281-.3687-1.0788.1326-.9671.5008-1.4714,1.3316-1.8232.313-.1326.6716-.3645.7969-.5155.1456-.1754.4404-.2459.8169-.1954.8585.1151,1.8681-.4416,1.9407-1.07.0522-.452.1241-.4969.7392-.4614.6643.0384.6829.0216.7396-.6666.0746-.9065-.2106-1.2346-1.0736-1.2346-.6651,0-.6977-.0296-.8107-.7361-.081-.5063-.266-.8333-.5928-1.0474-.4027-.2639-.4577-.4041-.3608-.9206.0804-.4286.0014-.8305-.2662-1.3552-.4439-.8701-.6219-.9171-1.0426-.2751-.2484.379-.4078.449-.8183.3588-.2836-.0623-.5635-.0252-.6308.0837-.2457.3976-.599.1736-1.0034-.636-.3171-.635-.5189-.8317-.8535-.8317-.241,0-.4896-.0832-.5524-.1848-.0628-.1016-.2839-.1848-.4912-.1848s-.6051-.2442-.884-.5427l-.507-.5428-.9663.2833c-.5315.1558-1.015.2345-1.0746.175-.0595-.0595.0377-.4319.2161-.8275.2561-.5679.2802-.8017.1148-1.1108-.244-.456-.7907-.5117-1.1206-.1143-.2489.2999-1.1089.3843-1.1089.1088,0-.205,1.0696-1.1253,1.3079-1.1253.1773,0,.9099-.6696.9099-.8317,0-.0508-.3259-.0924-.7241-.0924-.8801,0-1.3088-.1484-1.3088-.4532,0-.3053.5573-.7848,1.0165-.8747.2451-.048.3513-.1945.3153-.4349-.0299-.1994-.051-.6806-.047-1.0694.0068-.6574-.0282-.7045-.5001-.6735-.7858.0518-.8135.0253-.4902-.4681.1666-.2543.2619-.6193.2117-.8112s-.023-.4592.0604-.5941c.2358-.3816-.1676-.7163-.7282-.6042-.6452.129-1.4357-.4633-1.2531-.939.0952-.2481.2693-.3054.7239-.2383.3292.0486,1.0559-.0639,1.615-.2501.5591-.1861,1.2523-.3863,1.5405-.4448.2882-.0585.7136-.3109.9453-.5609.4579-.494.8454-.5641,1.4199-.2566.2817.1508.4755.1287.813-.0924.2437-.1597.6789-.2904.9671-.2904s.6119-.088.7194-.1954c.1075-.1075.6647-.2439,1.2382-.3031.5735-.0592,1.0526-.1999,1.0647-.3128.0532-.4989-.1011-.7899-.7781-1.4669-.3972-.3972-.7223-.8243-.7223-.9491,0-.4392-.6958-.8705-1.3253-.8214-.8151.0636-1.4042-.1464-1.6384-.5841-.2181-.4075-.9258-.4704-1.4697-.1307-.4969.3103-.7831-.0062-.8115-.8977-.0214-.6727.0153-.7155,1.0404-1.2111,1.1053-.5344,1.3237-.8561.693-1.021-.2033-.0532-.3696-.1689-.3696-.2573s-.3251-.3758-.7224-.6387c-.6858-.4538-.7505-.4636-1.2751-.1923-.304.1572-.8393.6207-1.1896,1.0299-.6238.7287-1.278.9597-1.536.5423-.0686-.111-.1359-.7971-.1495-1.5247-.0245-1.3062-.0324-1.3263-.6254-1.5873-.6843-.3012-.7699-.6485-.231-.9369.2033-.1088.3696-.3352.3696-.5031,0-.2384.1136-.1964.5183.1913.6371.6104,1.1019.6339,1.3175.0669.1997-.5253,1.0541-1.114,1.4155-.9754.1455.0558.4634.0108.7066-.0999.4007-.1826.4379-.3013.3972-1.268-.0513-1.2182.1934-1.6507,1.1464-2.0265.5167-.2037.7252-.1918,1.4427.0822.7826.2989.8614.2997,1.1785.0128.56-.5068.5992-1.2341.095-1.7658-.4963-.5235-.3976-.8541.2836-.9499.3865-.0544.4554-.1551.4213-.6162-.0296-.4003.1162-.713.5327-1.1427.8152-.8411.626-1.1869-.5717-1.045-1.1896.1409-1.3723-.1903-.681-1.2348.3552-.5367.4836-.9695.4836-1.6301,0-1.0889.3772-1.5111,1.3502-1.5111.5208,0,.7453-.1085.9866-.4768.266-.406.4039-.4596.9283-.3613.5349.1004.6159.0658.6159-.2625,0-.2128-.1212-.378-.2772-.378-.3516,0-.3588-.3581-.0125-.6265.447-.3466.3651-2.5878-.1168-3.1966-.3443-.4349.6755-1.55,1.1496-1.2569.0995.0615.181.4812.181.9326,0,.8171.2469,1.0544.6635.6377.1007-.1007.5687-.2359,1.04-.3005l.8569-.1175.0596.6239c.0527.5511.1283.6306.6485.681.715.0692,1.6304-.3744,1.9331-.9368.1225-.2277.2055-.7134.1844-1.0795-.0237-.4117.0697-.7552.2448-.9005.3964-.329.3528-.6518-.1327-.9811l-.4158-.282.5544-.2265c.3049-.1246.9703-.237,1.4785-.2498.5638-.0142,1.1233-.158,1.4352-.3688.3873-.2618.6907-.3168,1.2522-.227.6087.0973.7607.0602.851-.2079.0605-.1795.2768-.6862.4807-1.126.3258-.7029.4264-.7856.8309-.6841,1.3997.3513,1.471.3418,1.9107-.2528.2332-.3155.5243-.5736.6468-.5736s.2706-.1247.3291-.2772c.1609-.4193.4756-.3328.6724.1848.1506.3962.2915.462.9887.462.4471,0,1.1666-.1247,1.5987-.2772s1.0199-.2772,1.306-.2772.5733-.0857.638-.1905c.0669-.1083.3799-.1413.7253-.0765.5492.103.6469.0503,1.0171-.5488.3385-.5476.5174-.6627,1.0305-.6627.3415,0,.6754-.0883.7421-.1962.0667-.1079.3296-.2754.5841-.3722.3535-.1344.4273-.2518.3122-.4968-.0829-.1765-.1537-.9446-.1574-1.7069l-.0067-1.3861.6783.0524c.5301.0409.742-.0387.9703-.3645.1606-.2293.292-.5897.292-.8008,0-.5049.3409-.8275.8744-.8275.237,0,.4788-.1249.5374-.2776.1974-.5145,1.7128-1.3971,2.1921-1.2768.2425.0609.5497.0405.6825-.0453s.3663-.1605.5187-.166c.1525-.0055.5777-.075.945-.1544.5644-.1221.8295-.0532,1.7125.4451.9984.5635,1.065.5763,1.5037.2888.2525-.1654.4591-.3723.4591-.4598s.2176-.2006.4835-.2514c.544-.104,1.0818.322,1.3729,1.0877.1542.4055.2544.4524.7394.3459.7083-.1556,1.1358.166.9905.745-.1239.4935.1993,1.1973.5498,1.1973.3938,0,.9266.7114,1.2234,1.6336.2084.6475.3805.876.693.9204.3143.0446.4158-.0327.4158-.3169,0-.2068.1871-.4722.4158-.5899.2287-.1176.6445-.4272.9241-.6879.4395-.4099.5082-.6164.5082-1.5271,0-.906.0616-1.0934.4411-1.3421.2426-.159.6212-.5803.8412-.9364.3577-.5787.3774-.7315.1858-1.4417-.2837-1.052-.4082-3.9614-.1873-4.3743.1268-.237.0735-.4755-.1944-.8684-.2031-.2979-.451-.708-.551-.9112-.1992-.4051-.4142-.7718-1.0438-1.7801-.4677-.7491-.5516-1.7832-.157-1.9346.1423-.0546.5677-.5997.9452-1.2113.5045-.8173.6318-1.1666.4805-1.3179-.1133-.1133-.2064-.4596-.2071-.7696-.0006-.31-.1254-.8019-.2772-1.093-.5129-.9834-.3781-1.2805,1.0176-2.2428,1.3182-.9089,1.4565-1.1304,1.0813-1.7311-.1554-.2488-.1588-.4937-.0127-.9128.1686-.4838.1421-.6459-.1708-1.0436-.4104-.5217-.607-1.5092-.3341-1.6779.2462-.1522.2184-.7089-.0488-.9761-.1233-.1233-.2423-.723-.2644-1.3325-.0377-1.0388-.0085-1.1247.4655-1.3698.2781-.1438.6032-.4756.7225-.7374.1711-.3754.3494-.4759.845-.4759.3455,0,.7348-.1285.8651-.2855.1904-.2294.4776-.2618,1.4619-.1648,1.0017.0987,1.2699.0665,1.4716-.1765.3599-.4336.5678-.373,1.2409.3619.4428.4834.6187.8652.66,1.4323.0529.7278.1105.7991.9802,1.2141.8172.3899.8787.4577.532.5859-.2156.0798-.4563.3803-.5349.668-.4661,1.7061-.4345,2.278.1694,3.0698.3418.4481.4724.7913.3945,1.0367-.064.2018-.0369.5176.0603.7018.0972.1842.2739,1.5401.3927,3.0131.1188,1.473.2857,2.762.3708,2.8646.0851.1026.2105.8102.2786,1.5726s.2493,2.0868.4026,2.9432c.3913,2.1857.2238,3.2774-.7684,5.0081-.648,1.1304-.8206,1.6315-.9228,2.6798-.0691.7092-.2537,1.6931-.4101,2.1865-.1886.5949-.2446,1.1971-.1663,1.7874.1.7539.0423,1.0261-.377,1.777-.4741.8491-.4856.9327-.2712,1.9705.3329,1.6119,1.4204,3.6685,3.1975,6.047.8716,1.1666,1.7511,2.4537,1.9545,2.8603,1.0145,2.0282,1.4518,5.0474,1.0256,7.08-.2807,1.3384-.1296,3.0661.3762,4.3026.3622.8855.5758,4.2776.3016,4.79-.1173.2192-.3217,1.3839-.4541,2.5883-.2151,1.9559-.2059,2.4048.0861,4.2041.1798,1.1079.4757,2.2988.6576,2.6464.3243.6198.7348,2.4037.9321,4.051.0548.4574-.022,1.7973-.1706,2.9776-.208,1.6518-.2271,2.5241-.0827,3.7886.2734,2.3947.253,8.4392-.033,9.7745-.3001,1.4015-.4826,1.7495-2.1332,4.0681-.7425,1.043-1.9495,2.9132-2.6824,4.156-.7329,1.2428-1.6,2.5621-1.9269,2.9317-1.2595,1.4241-3.1086,3.8256-3.428,4.4521-.2693.5282-.3305,1.0684-.3149,2.7808.015,1.6538-.0461,2.2279-.2755,2.5874-.1621.2541-.4375,1.0618-.6119,1.7949-.301,1.2651-.3003,1.468.0139,3.9898l.331,2.657-.421,1.1547c-.3591.9849-.3882,1.2341-.1976,1.6942.1229.2967.1765.7742.1191,1.0611-.0734.3673-.0066.6053.2258.8043.2841.2432.32.5245.2579,2.0184-.0854,2.0528-.0877,2.2363-.0511,4.0739.0338,1.6973-.1613,2.1332-1.0276,2.2957-.8067.1513-1.2598.7206-.9839,1.2361.1476.2757.3181.3358.7233.2547.683-.1366.8977.1966.2785.432-.5376.2044-.5539.2495-.2608.7188.2597.4159-.1336,1.4532-.6081,1.6039-.167.053-.4059.3431-.5308.6447-.2658.6418-.4632.6896-.7367.1787-.2346-.4384-.6056-.4761-.9231-.0936-.1843.222-.1677.4053.0846.937.4462.9404.292,1.213-.5541.9794-.5416-.1495-.7373-.129-.9952.1044-.4694.4248-.9233.3555-1.1236-.1715-.229-.6023-.7392-.611-.7392-.0126,0,.2978-.2027.591-.6006.8689-.7643.5338-.8716.6942-.875,1.3087-.0029.5107.5722,1.0077.9185.7937.0959-.0593.4432-.482.7716-.9394.5409-.7532.6503-.8204,1.1616-.7129.3105.0652.7724.3115,1.0265.5471.3935.365.5723.408,1.2061.2901,1.2685-.2359,1.5812.1349.7345.8711-.2541.221-.462.5181-.462.6604s-.1247.3065-.2772.365c-.1797.0689-.2772.3555-.2772.8145,0,.8122-.2583,1.1516-.8765,1.1516-.5536,0-2.2725,1.2656-2.9459,2.169-.6462.8669-.7592.9483-1.1671.8417-.4907-.1283-.5965.2209-.1809.5971.4362.3948.4569.74.0869,1.4495-.3602.6906-.3492.7945.0967.9111.32.0837.3627.2182.3017.9502-.0392.4706-.2186,1.0157-.4003,1.2165-.1811.2001-.3377.5923-.3479.8716-.0142.3856-.1299.531-.4807.6041-.2541.0529-.7648.3796-1.1349.7258-.3701.3462-1.0354.7656-1.4785.932-.622.2335-.7914.3844-.7432.6619.1499.8635.0355,1.9349-.2538,2.3764-.5191.7922.0521.5759,1.1024-.4174,1.1225-1.0617,1.6099-1.3498,1.9388-1.1465.3164.1956-.0239,1.2979-.5467,1.7711-.1995.1805-.3627.4272-.3627.5481s-.176.3784-.3911.572c-.6291.5662-1.5063,1.936-1.6313,2.5472-.0932.4555-.2391.5934-.756.7146-.6879.1612-2.2861.2693-2.5713.1739Z" fill="#A8C0D4"/>
</svg>
